<?xml version="1.0" encoding="utf-8"?>
<!-- Generator: Adobe Illustrator 24.1.0, SVG Export Plug-In . SVG Version: 6.00 Build 0)  -->
<svg version="1.1" id="Layer_1" xmlns="http://www.w3.org/2000/svg" xmlns:xlink="http://www.w3.org/1999/xlink" x="0px" y="0px"
	 viewBox="0 0 168 48" style="enable-background:new 0 0 168 48;" xml:space="preserve">
<style type="text/css">
	.st0{fill:#FBC01D;}
	.st1{clip-path:url(#SVGID_2_);}
	.st2{fill:url(#SVGID_3_);}
	.st3{fill:url(#SVGID_4_);}
	.st4{fill:url(#SVGID_5_);}
	.st5{fill:#FFB600;}
	.st6{font-family:'Montserrat-ExtraBold';}
	.st7{font-size:24px;}
	.st8{font-size:19px;}
</style>
<path class="st0" d="M20.3,134.6c-1.5,0-2.3-2.1-2.3-6.2V76.4c0-4.1,0.8-6.2,2.3-6.2h11.8c1.1,0,1.7,1.5,1.7,4.6
	c0,3.2-0.6,4.7-1.7,4.7h-10v17.7h9.2c1.1,0,1.7,1.5,1.7,4.6c0,3.1-0.6,4.6-1.7,4.6h-9.2v18.7h10c1.1,0,1.7,1.5,1.7,4.6
	c0,3.1-0.6,4.6-1.7,4.6L20.3,134.6L20.3,134.6L20.3,134.6z M43.6,135.5c-1.4,0-2.6-0.9-3.7-2.8c-1.1-1.9-1.9-4.6-2.5-8
	c-0.6-3.5-0.9-7.7-0.9-12.4c0-4.8,0.3-8.9,0.9-12.3c0.6-3.4,1.4-6.1,2.5-8c1.1-1.9,2.3-2.8,3.7-2.8c1.1,0,2.2,0.7,3.1,2.1
	c0.9,1.4,1.6,3.2,2.1,5.6V75.4c0-3.8,0.7-5.7,2-5.7c1.4,0,2.1,1.9,2.1,5.7v54.2c0,3.9-0.7,5.8-2,5.8c-1.4,0-2-2-2-5.8v-1.9
	c-0.5,2.4-1.1,4.4-2.1,5.8C45.8,134.8,44.7,135.5,43.6,135.5z M44.7,126.8c1.2,0,2.2-1.2,3-3.7c0.8-2.5,1.1-6.1,1.1-10.9
	c0-4.9-0.4-8.5-1.1-10.9c-0.8-2.4-1.7-3.7-3-3.7s-2.2,1.2-3,3.7c-0.8,2.4-1.1,6-1.1,10.9c0,4.8,0.4,8.4,1.1,10.9
	C42.5,125.6,43.5,126.8,44.7,126.8z M63,135.5c-4,0-6-6.1-6-18.4V95c0-3.8,0.7-5.7,2-5.7c1.4,0,2.1,1.9,2.1,5.7v22.3
	c0,3.2,0.2,5.5,0.7,7c0.5,1.5,1.2,2.3,2.2,2.3c1.1,0,2-1,2.7-3.1c0.7-2.1,1.1-4.9,1.1-8.4V95c0-3.8,0.7-5.7,2-5.7
	c1.4,0,2.1,1.9,2.1,5.7v34.5c0,3.9-0.7,5.8-2,5.8c-1.3,0-2-2-2-5.8V128C66.9,133,65.2,135.5,63,135.5z M81.8,135.5
	c-3.7,0-5.5-5.7-5.5-17.1V75.3c0-3.8,0.7-5.7,2-5.7c1.4,0,2.1,1.9,2.1,5.7v42.6c0,5.5,0.8,8.2,2.5,8.2c0.2,0,0.3,0,0.5,0
	c0.2,0,0.3-0.1,0.5-0.2c0.3-0.1,0.5,0.1,0.6,0.7c0.1,0.6,0.2,1.7,0.2,3.4c0,1.5-0.1,2.7-0.3,3.6c-0.2,0.9-0.6,1.4-1.1,1.5
	C82.8,135.4,82.3,135.5,81.8,135.5z M92.2,135.5c-1.1,0-2.2-0.6-3.2-1.8c-0.9-1.3-1.6-3-2.1-5.1c-0.5-2.1-0.8-4.5-0.8-7.2
	c0-3.3,0.3-5.9,0.9-7.8c0.6-2,1.6-3.4,3-4.2c1.4-0.9,3.2-1.3,5.6-1.3h1.1v-1.9c0-3-0.3-5.2-0.7-6.6c-0.5-1.3-1.3-2-2.4-2
	c-0.6,0-1.3,0.2-2.1,0.6c-0.7,0.4-1.5,1.1-2.3,2.2c-0.5,0.7-1,0.8-1.3,0.3c-0.3-0.6-0.6-1.4-0.7-2.5c-0.1-1.1-0.1-2.3,0.1-3.4
	c0.2-1.1,0.5-2,1-2.6c1-1.1,2-2,2.9-2.5c0.9-0.5,1.8-0.7,2.6-0.7c2.3,0,4.1,1.5,5.2,4.6c1.1,3,1.7,7.6,1.7,14v21.9
	c0,3.9-0.6,5.8-1.9,5.8c-1.3,0-2-2-2-5.8v-2c-0.4,2.5-1,4.5-1.8,5.9C94.3,134.8,93.3,135.5,92.2,135.5z M93,127.6c1.1,0,2-1,2.7-3.1
	c0.7-2.1,1.1-4.7,1.1-7.8v-2h-1.1c-2.1,0-3.5,0.5-4.3,1.4c-0.8,0.9-1.2,2.4-1.2,4.7c0,2,0.3,3.7,0.8,4.9
	C91.4,127,92.1,127.6,93,127.6z M107,135.3c-1.4,0-2-2-2-5.8V95c0-3.8,0.7-5.7,2-5.7c1.4,0,2,1.9,2,5.7v1.9c0.6-2.6,1.3-4.5,2.2-5.8
	c0.9-1.3,2-2,3.2-2c3.8,0,5.7,6.1,5.7,18.4v22.1c0,3.9-0.7,5.8-2,5.8c-1.4,0-2.1-2-2.1-5.8V108c0-3.4-0.3-6-0.7-7.6
	c-0.5-1.6-1.2-2.4-2.2-2.4c-1.2,0-2.2,1.1-2.9,3.2c-0.7,2.1-1.1,4.9-1.1,8.3v20C109.1,133.3,108.4,135.3,107,135.3z M130.5,135.5
	c-1.4,0-2.6-0.9-3.7-2.8c-1.1-1.9-1.9-4.6-2.5-8c-0.6-3.5-0.9-7.7-0.9-12.4c0-4.8,0.3-8.9,0.9-12.3c0.6-3.4,1.4-6.1,2.5-8
	c1.1-1.9,2.3-2.8,3.7-2.8c1.1,0,2.2,0.7,3.1,2.1c0.9,1.4,1.6,3.2,2.1,5.6V75.4c0-3.8,0.7-5.7,2-5.7c1.4,0,2.1,1.9,2.1,5.7v54.2
	c0,3.9-0.7,5.8-2,5.8s-2-2-2-5.8v-1.9c-0.5,2.4-1.1,4.4-2.1,5.8C132.7,134.8,131.7,135.5,130.5,135.5z M131.7,126.8
	c1.2,0,2.2-1.2,3-3.7c0.8-2.5,1.1-6.1,1.1-10.9c0-4.9-0.4-8.5-1.1-10.9c-0.8-2.4-1.7-3.7-3-3.7s-2.2,1.2-3,3.7
	c-0.8,2.4-1.1,6-1.1,10.9c0,4.8,0.4,8.4,1.1,10.9C129.5,125.6,130.4,126.8,131.7,126.8z"/>
<g>
	<g>
		<g>
			<defs>
				<rect id="SVGID_1_" width="48" height="48"/>
			</defs>
			<clipPath id="SVGID_2_">
				<use xlink:href="#SVGID_1_"  style="overflow:visible;"/>
			</clipPath>
			<g class="st1">
				
					<linearGradient id="SVGID_3_" gradientUnits="userSpaceOnUse" x1="19.7562" y1="-765.7227" x2="41.0501" y2="-787.0167" gradientTransform="matrix(1 0 0 -1 0 -746.1102)">
					<stop  offset="0" style="stop-color:#FFB550"/>
					<stop  offset="1" style="stop-color:#F67B53"/>
				</linearGradient>
				<path class="st2" d="M21.8,18.8H45c0.4,0,0.8,0.1,1.2,0.2c0.4,0.2,0.7,0.4,1,0.7c0.3,0.3,0.5,0.6,0.7,1s0.2,0.8,0.2,1.2V24
					c0,3.2-0.6,6.3-1.8,9.2s-3,5.6-5.2,7.8s-4.9,4-7.8,5.2s-6,1.8-9.2,1.8H22c-0.8,0-1.6-0.3-2.1-0.9C19.3,46.5,19,45.8,19,45V21.8
					c0-0.8,0.3-1.6,0.9-2.1C20.2,19.1,21,18.8,21.8,18.8L21.8,18.8z"/>
				
					<linearGradient id="SVGID_4_" gradientUnits="userSpaceOnUse" x1="9.3867" y1="-749.8787" x2="32.3367" y2="-772.8286" gradientTransform="matrix(1 0 0 -1 0 -746.1102)">
					<stop  offset="0" style="stop-color:#FFB550"/>
					<stop  offset="0.39" style="stop-color:#FFB350"/>
					<stop  offset="0.6" style="stop-color:#FDAB51"/>
					<stop  offset="0.77" style="stop-color:#FB9D51"/>
					<stop  offset="0.92" style="stop-color:#F88A52"/>
					<stop  offset="1" style="stop-color:#F67B53"/>
				</linearGradient>
				<path class="st3" d="M46.2,1.5c0,7.7-7.8,13.9-15.5,13.9h-13c-0.6,0-1.2,0.2-1.6,0.7c-0.4,0.4-0.7,1-0.7,1.6v24.9
					c0,0.6-0.3,1.3-0.7,1.7C14.2,44.8,13.6,45,13,45C8.3,44.7,1,34.7,0.1,27.5C0,26.9,0,26.2,0,25.5v-3.1c0-3,0.6-5.9,1.7-8.6
					s2.8-5.2,4.9-7.3s4.6-3.7,7.3-4.9c2.7-1,5.6-1.6,8.6-1.6h22.2c0.2,0,0.4,0,0.6,0.1c0.2,0.1,0.3,0.2,0.5,0.3
					c0.1,0.1,0.2,0.3,0.3,0.5C46.1,1.1,46.2,1.3,46.2,1.5L46.2,1.5z"/>
				
					<linearGradient id="SVGID_5_" gradientUnits="userSpaceOnUse" x1="19.5827" y1="-787.8486" x2="6.616" y2="-765.3872" gradientTransform="matrix(1 0 0 -1 0 -746.1102)">
					<stop  offset="0" style="stop-color:#FFB550"/>
					<stop  offset="0.61" style="stop-color:#F98F52"/>
					<stop  offset="1" style="stop-color:#F67B53"/>
				</linearGradient>
				<path class="st4" d="M15.6,15.5h2.1L16.9,16c-0.8,0.6-1,1.1-1.3,2.1v24.2c0,0.4-0.1,0.7-0.2,1.1c-0.1,0.3-0.4,0.7-0.6,0.9
					c-0.3,0.3-0.6,0.5-0.9,0.6c-0.3,0.1-0.7,0.2-1.1,0.2C12.3,45.7,2,38.7,2,32.2C2,24.8,8.1,15.5,15.6,15.5z"/>
			</g>
		</g>
	</g>
</g>
<text transform="matrix(1 0 0 1 57.2071 43.0857)" class="st5 st6 st7">1Hour</text>
<text transform="matrix(1 0 0 1 56.2071 16.5538)" class="st5 st6 st8">Languages</text>
</svg>
